<svg width="45" height="48" viewBox="0 0 45 48" fill="none" xmlns="http://www.w3.org/2000/svg">
<path d="M17.7125 0.15012C17.1407 0.431423 17.0024 1.12531 17.2791 2.32554C17.7494 4.34156 19.4187 5.9825 21.4292 6.41383C21.8995 6.51698 22.7296 6.55448 24.5003 6.55448C26.852 6.55448 26.9166 6.56386 26.9166 6.74202C26.9166 6.96706 27.4422 13.8309 27.516 14.6842L27.5806 15.2655L18.3673 15.3031C9.89188 15.3312 9.10797 15.3406 8.47162 15.5C4.31229 16.5127 1.25965 19.532 0.254401 23.6578C-0.0130507 24.7549 -0.0868305 26.7803 0.116064 27.9524C0.826194 32.1719 3.87883 35.5945 7.91827 36.7009C9.31087 37.076 10.6573 37.1323 17.0024 37.1041C22.3607 37.076 22.831 37.0666 23.0524 36.9072C23.6979 36.4665 23.6979 35.5288 23.0524 35.0881C22.831 34.9287 22.2961 34.9193 15.9418 34.8725L9.07108 34.8162L8.28717 34.5536C6.72858 34.0285 5.56654 33.3065 4.54285 32.2282C2.25568 29.8277 1.51788 26.3864 2.62458 23.2171C3.13181 21.7731 4.10939 20.3759 5.29909 19.4007C6.13834 18.7162 7.58627 17.9848 8.65607 17.6941L9.43998 17.4878L24.6571 17.4316L39.8741 17.3847L40.4736 17.169C41.6172 16.7471 42.3273 16.297 43.102 15.5093C45.1033 13.4839 45.5644 10.4927 44.2825 7.86724C43.7752 6.82641 42.5487 5.60743 41.4881 5.07295C40.5566 4.61348 39.7358 4.39782 38.8504 4.39782C38.334 4.39782 38.1403 4.43533 37.9651 4.58535C37.4486 4.99793 37.4025 5.75746 37.8729 6.20754C38.0665 6.40446 38.2786 6.47947 38.8136 6.55448C39.8096 6.69514 40.1785 6.81704 40.7503 7.16398C43.1573 8.65489 43.5723 11.9462 41.5987 13.9528C40.5013 15.0686 39.7635 15.2749 36.7108 15.2749H34.5712L34.6173 14.778C34.6542 14.5154 34.8294 12.1618 35.0323 9.55507C35.4105 4.40719 35.4105 4.03212 34.9862 2.98192C34.8663 2.68186 34.6173 2.20364 34.4329 1.92234C33.0034 -0.271835 30.0522 -0.590649 28.2723 1.26596C27.6636 1.89421 27.0826 3.01005 26.9166 3.87271L26.8059 4.41657L24.3527 4.37906C22.0471 4.34156 21.8534 4.3228 21.3462 4.11651C20.673 3.85396 19.972 3.21634 19.6585 2.57872C19.5294 2.31617 19.3726 1.78168 19.2988 1.37848C19.1512 0.534569 19.0498 0.318905 18.6532 0.131367C18.2843 -0.0467911 18.0907 -0.0467911 17.7125 0.15012ZM32.0535 2.5037C32.4132 2.76625 32.9481 3.58204 33.0864 4.06963C33.2432 4.63224 33.2155 5.11983 32.8189 10.2677C32.6161 12.8838 32.45 15.078 32.45 15.153C32.45 15.2468 32.1549 15.2749 31.0667 15.2749H29.6833V15.0405C29.6833 14.778 29.1668 7.93288 29.0838 7.09834L29.0285 6.57324L30.2274 6.53573C31.5831 6.5076 31.8506 6.39508 32.0535 5.79496C32.1918 5.35425 32.1088 5.00731 31.786 4.67912L31.5094 4.39782H30.2735C28.8717 4.39782 28.8902 4.40719 29.2222 3.66642C29.4804 3.09444 29.8493 2.63498 30.2274 2.41931C30.6886 2.16613 31.6477 2.20364 32.0535 2.5037Z" fill="#4169E1"/>
<path d="M28.4661 19.8414C28.1433 20.0477 28.0234 20.3384 28.0234 20.9291C28.0327 22.1387 30.0339 47.2217 30.1354 47.4186C30.2829 47.6999 30.7717 48 31.0761 48C31.4634 48 31.9245 47.6249 32.0629 47.203C32.1551 46.9123 34.0549 22.7764 34.1287 20.9948C34.1379 20.7604 34.0918 20.4322 34.0273 20.2634C33.7414 19.5507 32.6347 19.4757 32.2104 20.1321C32.0352 20.404 32.0075 20.6666 31.4726 27.7742C31.279 30.3435 31.0853 32.3689 31.0576 32.2751C31.0207 32.1813 30.7994 29.5089 30.5596 26.3396C30.3014 22.9545 30.08 20.4509 30.0063 20.2915C29.7757 19.7195 29.0102 19.5039 28.4661 19.8414Z" fill="#4169E1"/>
<path d="M10.2518 27.4273C9.76297 27.6054 9.07128 28.2243 8.81306 28.7213C8.52716 29.2745 8.52716 30.531 8.81306 31.0749C9.1174 31.6468 11.1279 33.6347 11.5152 33.7472C11.8749 33.8504 22.1764 33.8785 22.6837 33.7754C23.1263 33.691 25.0815 31.7406 25.3951 31.0842C25.7178 30.4185 25.7732 29.8559 25.5887 29.2182C25.3951 28.5244 24.9524 27.9711 24.3345 27.6148L23.8272 27.3241L17.2332 27.3054C11.589 27.296 10.5838 27.3054 10.2518 27.4273ZM23.4122 29.6214C23.5137 29.7246 23.5967 29.8559 23.5967 29.9121C23.5967 29.9684 23.2554 30.3716 22.8404 30.8029L22.0842 31.5906H17.1502H12.2069L11.4507 30.8217C11.0264 30.3903 10.6852 29.9871 10.6852 29.9121C10.6852 29.8371 10.7498 29.6965 10.842 29.6027C10.9803 29.4433 11.3031 29.4339 17.1133 29.4339C23.1079 29.4339 23.2278 29.4339 23.4122 29.6214Z" fill="#4169E1"/>
<path d="M11.4785 38.2481C10.8421 38.445 10.5562 39.0639 10.8052 39.6828C11.1004 40.3954 10.7776 40.3579 17.1042 40.3579C21.7892 40.3579 22.776 40.3391 22.9789 40.2266C23.6798 39.8422 23.7167 38.8295 23.0527 38.37C22.8313 38.2106 22.3887 38.2012 17.2794 38.1825C14.236 38.1731 11.626 38.2012 11.4785 38.2481Z" fill="#4169E1"/>
<path d="M11.2659 41.6331C10.7863 41.8676 9.09857 43.6304 8.83112 44.1743C8.55445 44.7181 8.49911 45.5902 8.69278 46.1997C8.89568 46.7998 9.42136 47.4186 10.0024 47.7187L10.4543 47.9531L16.9653 47.9812C23.3012 48 23.4948 48 23.9744 47.8125C25.0442 47.4093 25.6714 46.4997 25.6714 45.3745C25.6621 44.4462 25.4223 44.0242 24.2142 42.7677C23.6516 42.177 23.0522 41.6331 22.8862 41.5675C22.6464 41.4644 21.5674 41.4362 17.1221 41.4362C11.7731 41.4362 11.644 41.4362 11.2659 41.6331ZM22.7939 44.4274C23.2366 44.8869 23.5963 45.3089 23.5963 45.3651C23.5963 45.4214 23.5133 45.5527 23.4118 45.6558C23.2274 45.8433 23.1075 45.8433 17.1498 45.8433C11.395 45.8433 11.063 45.834 10.8693 45.6745C10.5465 45.412 10.6756 45.1307 11.5056 44.3149L12.2342 43.5929H17.1129H21.9916L22.7939 44.4274Z" fill="#4169E1"/>
</svg>
