<svg width="50" height="45" viewBox="0 0 50 45" fill="none" xmlns="http://www.w3.org/2000/svg">
<g clip-path="url(#clip0_95_41)">
<path d="M40.0953 -2.88842C39.8707 -2.71459 39.7341 -2.29931 39.7341 -1.78746V-1.36253H39.0507C38.3282 -1.36253 37.8498 -1.19835 37.7425 -0.927937C37.7132 -0.841019 37.6839 0.424126 37.6839 1.88242V4.52859H27.8138H17.9436L17.6605 4.80867C17.3286 5.14668 17.309 5.37846 17.5726 5.71648L17.7777 5.96758L31.3674 5.99655L44.9571 6.02552L45.5038 6.23799C47.0561 6.81744 48.1495 8.06327 48.4229 9.56019C48.4912 9.90787 48.5108 14.9588 48.501 24.2397L48.4717 38.3784L48.2374 38.8323C47.9348 39.4407 47.3978 39.9816 46.8023 40.2713L46.3239 40.5031L29.0731 40.5514C12.867 40.5997 11.8126 40.6093 11.6467 40.7638C11.3928 41.0149 11.4319 41.5944 11.7052 41.8165C11.92 41.9903 12.4667 42 29.0341 42C42.9948 42 46.2165 41.971 46.6168 41.8648C48.2276 41.4399 49.4187 40.2616 49.8385 38.6488C50.0533 37.8279 50.0533 10.1396 49.8385 9.1256C49.4089 7.10717 47.7688 5.37846 45.6991 4.77969C45.4062 4.69278 44.7619 4.5962 44.264 4.56723L43.3463 4.49962V1.82447C43.3463 -1.44945 43.4048 -1.29493 42.1357 -1.35287L41.2961 -1.38184V-1.79712C41.2961 -2.31863 41.1301 -2.79185 40.9056 -2.90774C40.6518 -3.04295 40.2905 -3.02363 40.0953 -2.88842ZM41.8819 2.30735V4.52859H40.5151H39.1483V2.37495C39.1483 1.18707 39.1776 0.182686 39.2166 0.153713C39.2459 0.115082 39.861 0.0861092 40.5834 0.0861092H41.8819V2.30735Z" fill="#4169E1"/>
<path d="M10.5926 2.13352C10.2021 2.33633 10.1532 2.51017 10.1532 3.52421V4.51894L9.79202 4.57689C8.6986 4.73141 8.2788 4.8473 7.56612 5.19497C6.59961 5.67785 5.90646 6.26696 5.33045 7.11683C4.49086 8.37231 4.46157 8.54615 3.81723 15.2195C3.19241 21.6998 3.19241 21.7867 3.66103 22.7524C4.19798 23.8341 5.26211 24.5488 6.58985 24.7323L7.32205 24.8385V25.6497C7.32205 27.2142 7.92734 27.8999 9.32341 27.8999H9.95799V29.7349V31.5698H5.22306H0.478374L0.244068 31.8113L0 32.043V35.0659C0 38.3398 0.0488137 38.7164 0.546713 39.7015C0.878646 40.3486 1.67919 41.1405 2.35282 41.4688C3.31933 41.9614 3.63174 42 6.66795 42H9.47962L9.71392 41.7586C10.0068 41.4785 10.0263 41.1405 9.7725 40.8314L9.58701 40.5997L6.61913 40.5514C3.77818 40.5031 3.6415 40.4934 3.20218 40.281C2.61641 39.9912 2.03065 39.4118 1.73777 38.8323C1.52299 38.3977 1.51322 38.2722 1.48394 35.6936L1.45465 33.0185H3.44625H5.44761L5.48666 34.0904C5.51595 35.1238 5.52571 35.1721 5.7893 35.3942L6.06266 35.626H10.8855H15.7082L15.9816 35.3942C16.2452 35.1721 16.255 35.1238 16.2842 34.0904L16.3233 33.0185H21.5756C26.7304 33.0185 26.828 33.0185 27.0818 32.8156C27.4138 32.5549 27.4333 32.072 27.1111 31.7823L26.8866 31.5698H19.1545H11.4224V29.7445V27.9193L12.1937 27.8903C12.8868 27.8516 13.004 27.8227 13.3457 27.5523C13.9314 27.079 14.0681 26.77 14.1267 25.7366L14.1853 24.8288L14.8296 24.7129C16.0988 24.5005 17.1824 23.7375 17.6998 22.6848C17.8365 22.3951 18.188 21.3135 18.4711 20.2801C18.8714 18.7735 19.0373 18.3389 19.2521 18.0878C19.8184 17.4504 19.6914 17.4601 26.4277 17.4891C32.383 17.518 32.5001 17.518 32.7637 17.7208C32.9102 17.8271 33.125 18.0396 33.2324 18.1844C33.4374 18.4452 33.4374 18.5417 33.4374 24.5198C33.4374 30.4978 33.4374 30.5944 33.2324 30.8552C32.7735 31.4732 32.6271 31.5215 31.0162 31.5505C30.1961 31.5602 29.4346 31.5988 29.3175 31.6181C29.1906 31.6471 29.0246 31.8016 28.9465 31.9561C28.8098 32.2072 28.8098 32.2845 28.9368 32.5839C29.0246 32.7963 29.1711 32.9412 29.3273 32.9798C29.4542 33.0088 30.284 33.0185 31.1627 32.9991C32.6075 32.9702 32.793 32.9508 33.2324 32.7384C33.8474 32.439 34.3551 31.9368 34.6577 31.3284L34.9018 30.8455V24.5198V18.1941L34.6577 17.7112C34.3355 17.0448 33.6912 16.4654 33.0371 16.2143C32.5001 16.0211 32.3732 16.0115 26.0763 16.0404L19.6719 16.0694L19.2326 16.3012C17.983 16.9579 17.7291 17.3635 17.0848 19.7393C16.4893 21.9605 16.3819 22.202 15.8644 22.6752C15.1615 23.3126 15.1615 23.3126 10.5438 23.3126C6.48246 23.3126 6.38483 23.3126 6.00408 23.1001C5.18401 22.6655 4.78374 21.9992 4.78374 21.0817C4.78374 20.1159 5.84788 9.52157 5.99432 9.04834C6.38483 7.74457 7.45873 6.68224 8.83528 6.23799C9.3527 6.06416 9.79202 6.03518 12.5158 5.98689C15.4642 5.92895 15.6204 5.91929 15.7571 5.7358C15.9133 5.53299 15.9523 5.22395 15.8547 4.96319C15.7082 4.5962 15.308 4.5286 13.4238 4.5286H11.6177V3.5725C11.6177 2.45222 11.5884 2.34599 11.2174 2.16249C10.8952 1.98866 10.8464 1.98866 10.5926 2.13352ZM12.5744 25.6014L12.5451 26.403L10.7976 26.432C9.59677 26.4513 9.01101 26.4223 8.92314 26.3451C8.82551 26.2678 8.78646 26.0071 8.78646 25.5242V24.8095H10.6902H12.6037L12.5744 25.6014ZM14.7417 33.5979V34.1774H10.8855H7.02917V33.5979V33.0185H10.8855H14.7417V33.5979Z" fill="#4169E1"/>
<path d="M26.5052 10.3714C26.1928 10.6708 26.183 11.0861 26.4857 11.3662C26.7004 11.5593 26.8078 11.5786 28.1063 11.5786C29.4633 11.5786 29.4926 11.569 29.7464 11.3275C29.9417 11.1344 29.9807 11.0282 29.9319 10.7771C29.8245 10.1976 29.6195 10.13 28.0965 10.13C26.7883 10.13 26.7297 10.1397 26.5052 10.3714Z" fill="#4169E1"/>
<path d="M32.1692 10.3714C31.8568 10.6708 31.8471 11.0861 32.1497 11.3662L32.3743 11.5786H38.4272H44.4898L44.6948 11.3565C44.978 11.0571 44.9682 10.6612 44.6656 10.3714L44.4312 10.13H38.4174H32.4036L32.1692 10.3714Z" fill="#4169E1"/>
<path d="M41.2085 15.9342C40.5251 16.0694 39.9198 16.4074 39.3341 16.9869C38.1625 18.1362 37.9673 19.9614 38.8654 21.3521C40.3884 23.6989 43.9128 23.4961 45.1624 20.9851C45.4162 20.4733 45.4455 20.3188 45.4455 19.4496C45.4455 18.6094 45.4162 18.4162 45.1819 17.9333C44.6938 16.9 43.6882 16.1467 42.5167 15.9342C41.8724 15.8183 41.8138 15.8183 41.2085 15.9342ZM42.4777 17.4118C42.6729 17.4505 43.0048 17.6243 43.2489 17.8271C44.4595 18.8508 44.235 20.6278 42.8194 21.3521C42.5167 21.5066 42.3019 21.5356 41.7845 21.5066C40.9742 21.468 40.4568 21.159 40.0663 20.5023C39.5293 19.6041 39.7929 18.339 40.6325 17.7498C40.9644 17.5084 41.7357 17.267 41.9798 17.3249C42.0579 17.3442 42.2824 17.3829 42.4777 17.4118Z" fill="#4169E1"/>
</g>
<defs>
<clipPath id="clip0_95_41">
<rect width="50" height="45" fill="white"/>
</clipPath>
</defs>
</svg>
