<svg width="45" height="45" viewBox="0 0 45 45" fill="none" xmlns="http://www.w3.org/2000/svg">
<g clip-path="url(#clip0_95_39)">
<path d="M33.9959 0.0978127C33.0598 0.40564 32.37 1.04768 32.104 1.84803C31.7985 2.75392 32.0153 3.58945 32.7248 4.29305L33.1682 4.7328L30.2022 11.5666C28.5763 15.322 27.1869 18.5059 27.1376 18.6466L27.0292 18.884L26.3197 18.4179C24.2701 17.0898 22.2008 16.2631 19.7373 15.7882C18.8406 15.6211 18.4071 15.5947 16.5348 15.5859C14.633 15.5859 14.2389 15.6123 13.3126 15.7882C6.30649 17.1338 1.21203 21.9447 0.118247 28.2508C0.0492694 28.6377 0 29.57 0 30.3176C0.0492694 39.1654 8.80937 46.0256 18.5746 44.8734C20.5749 44.6359 22.7723 44.0027 24.4475 43.176L24.9697 42.9209L25.63 43.3167C29.335 45.5506 34.1339 45.5506 37.967 43.3255C38.7652 42.8593 40.3615 41.4433 40.9035 40.7309C41.7608 39.5876 42.4111 38.1716 42.7067 36.8259C43.0024 35.4187 42.8053 33.2815 42.2337 31.8743C41.544 30.1593 40.263 28.4706 39.6422 28.4706C39.3071 28.4706 38.982 28.7081 38.9031 28.9983C38.844 29.2182 38.8933 29.3062 39.5141 30.0801L39.8393 30.4847L39.2677 30.7837C38.0458 31.4434 36.8929 31.8831 35.5331 32.2173C34.6265 32.4372 32.4587 32.7362 32.37 32.6483C32.2912 32.5779 32.6262 31.5665 32.9908 30.7749C33.4342 29.8163 34.0649 28.8576 34.863 27.9605L35.5035 27.2393L36.0948 27.5032C36.8338 27.8374 37.1984 27.8462 37.4645 27.5384C37.8685 27.081 37.701 26.7292 36.8831 26.3598C35.6021 25.7794 34.1733 25.4188 32.774 25.3132L32.0448 25.2604L31.7098 24.5217C31.2664 23.563 30.5865 22.5076 29.808 21.5577C29.4138 21.0828 29.2168 20.7662 29.266 20.6958C29.3153 20.6343 31.9167 17.943 35.0503 14.7152C39.9575 9.66683 40.7852 8.84889 40.9626 8.90166C41.0808 8.93684 41.4849 8.98081 41.8692 9.0072C42.7659 9.06876 43.4064 8.89286 44.0173 8.40913C45.7319 7.06349 45.1012 4.53052 42.9137 3.96764C41.948 3.71258 40.8838 3.93246 40.1053 4.53931C39.2382 5.22533 38.9327 6.55338 39.4352 7.51204L39.6619 7.95179L34.1733 13.6158C31.1481 16.7292 28.596 19.359 28.4876 19.4557C28.2511 19.6668 27.8668 20.6079 31.6113 11.9711L34.5576 5.18135L35.1488 5.14617C36.6565 5.05822 37.6813 4.09077 37.7502 2.68356C37.7896 2.11188 37.7502 1.93598 37.5433 1.5402C37.2477 0.968525 36.686 0.449615 36.0948 0.212151C35.5331 -0.0165215 34.4985 -0.069294 33.9959 0.0978127ZM35.4346 1.41707C35.9568 1.61057 36.213 1.93598 36.2721 2.44609C36.3608 3.26403 35.7893 3.84451 34.8926 3.84451C34.0452 3.84451 33.385 3.20247 33.4638 2.46368C33.5623 1.59297 34.5379 1.07407 35.4346 1.41707ZM42.8743 5.40123C43.5246 5.83218 43.702 6.47422 43.3472 7.08108C42.8841 7.89022 41.4454 7.9342 40.8739 7.16024C40.4403 6.57097 40.6965 5.68267 41.3863 5.34846C41.8396 5.11979 42.4998 5.14617 42.8743 5.40123ZM18.9983 17.0371C19.6289 17.1338 20.1906 17.2394 20.2399 17.2657C20.2891 17.2921 19.9837 17.5032 19.5501 17.7319C16.6235 19.3062 14.0812 21.5577 12.3371 24.1259C11.7754 24.9614 10.7703 26.782 10.7703 26.9755C10.7703 27.1778 11.0561 27.5032 11.3024 27.5823C11.4108 27.6263 11.6374 27.6175 11.7951 27.5648C12.0217 27.4944 12.1597 27.3185 12.544 26.5885C13.4998 24.7503 14.6626 23.2464 16.2885 21.7512C17.9242 20.2385 19.6684 19.0775 21.5307 18.2596L22.388 17.8814L23.3044 18.2948C23.807 18.5234 24.3095 18.7697 24.4179 18.8489C24.615 18.9808 24.615 18.9808 24.4278 19.0775C23.2946 19.6492 21.5012 20.9157 20.3286 21.9623C16.8107 25.1197 14.771 29.0335 14.1699 33.7741C14.1108 34.2666 14.0812 34.3106 12.9283 35.4803C11.9429 36.4917 11.7557 36.738 11.7557 36.9755C11.7557 37.3448 12.0513 37.6175 12.4553 37.6175C12.7706 37.6175 13.017 37.4416 13.7363 36.6764L14.0812 36.307L14.1994 37.3361C14.4064 39.2006 14.8991 40.9684 15.7169 42.745C15.9337 43.2199 16.0914 43.6333 16.0618 43.6597C16.0027 43.7037 14.1699 43.5454 13.7757 43.4574C13.5984 43.4222 13.3914 43.132 12.9086 42.2965C11.2728 39.4381 10.5831 36.7204 10.7013 33.5718C10.7407 32.7274 10.8294 31.716 10.9181 31.329C11.2039 29.9922 11.2137 29.8339 10.9772 29.6228C10.6816 29.3589 10.1199 29.3941 9.87359 29.7019C9.39075 30.2824 9.03601 34.0995 9.28236 36.0344C9.55827 38.1716 10.1298 40.0801 11.0659 41.9535C11.3221 42.4724 11.4995 42.8945 11.4601 42.8945C11.2827 42.8945 9.88345 42.3228 9.11484 41.9359L8.29697 41.5313L7.75501 40.5374C4.8087 35.1813 5.15358 28.7433 8.66156 23.5454C9.56812 22.1998 10.2283 21.4698 11.6966 20.1593C13.0958 18.9192 14.16 18.1804 15.7662 17.3273C16.5447 16.9139 16.6925 16.87 17.2443 16.87C17.5695 16.8612 18.3676 16.9403 18.9983 17.0371ZM13.2338 17.1602C13.2338 17.1778 12.8495 17.468 12.3765 17.8022C11.3123 18.5322 9.74549 19.9394 8.94733 20.8629C8.62215 21.2411 8.26741 21.6457 8.15902 21.76L7.95209 21.9799L7.14407 21.1708L6.32619 20.3528L6.69079 20.0802C8.33639 18.8489 10.3367 17.8814 12.3962 17.3449C13.3323 17.0986 13.2338 17.1162 13.2338 17.1602ZM26.2212 20.0274L26.4577 20.2033L25.9354 21.4082L25.4132 22.6219L22.999 25.1109L20.5848 27.5999L20.23 27.556C19.3235 27.4152 17.9636 27.1162 17.9636 27.0546C17.9636 26.9227 18.8406 25.6474 19.4614 24.8735C20.2005 23.9588 22.457 21.9183 23.4818 21.2411C24.3687 20.6606 25.7581 19.8603 25.896 19.8603C25.9551 19.8603 26.1029 19.9306 26.2212 20.0274ZM6.8386 23.7125C6.64152 24.0291 6.28678 24.724 6.03058 25.2429C5.77438 25.7706 5.54774 26.2103 5.52803 26.2367C5.41964 26.3334 3.37988 23.994 3.37988 23.7829C3.37988 23.607 4.45396 22.1558 4.91709 21.6985L5.29154 21.3291L6.23751 22.235L7.18348 23.132L6.8386 23.7125ZM29.0394 22.8858C29.335 23.2728 29.7784 23.9676 30.0346 24.4249C30.4386 25.1725 30.4682 25.2692 30.3105 25.3132C30.212 25.3396 29.6503 25.4715 29.069 25.5947C27.9161 25.8409 26.5562 26.3774 25.6004 26.9579C25.2752 27.1514 24.9993 27.3009 24.9895 27.2921C24.9796 27.2833 25.354 26.3862 25.827 25.2956C26.6843 23.3343 26.704 23.3079 27.4332 22.5604L28.1624 21.804L28.3398 21.9887C28.4383 22.0942 28.7536 22.4988 29.0394 22.8858ZM4.42439 27.1514L5.04519 27.7319L4.90723 28.2156C4.7003 28.928 4.36527 30.7134 4.36527 31.1355C4.36527 31.7864 4.25688 31.7688 3.47842 30.9596C2.21712 29.6756 1.60618 28.9016 1.60618 28.5762C1.60618 28.1804 1.86238 27.081 2.16785 26.2279C2.56201 25.1021 2.51274 25.1197 3.20251 25.8937C3.53754 26.2719 4.08936 26.8348 4.42439 27.1514ZM23.5212 26.9491C23.3833 27.2833 23.2453 27.6175 23.2158 27.6967C23.1862 27.8022 23.0679 27.855 22.9004 27.855C22.3782 27.855 22.4077 27.7407 23.0778 27.0458C23.4325 26.6677 23.738 26.3686 23.7479 26.3598C23.7676 26.3598 23.6592 26.6237 23.5212 26.9491ZM30.0839 27.4328C28.9014 28.84 27.9653 30.643 27.512 32.4196C27.2558 33.4047 27.1475 35.7969 27.315 36.8347C27.6796 39.0951 28.7832 41.417 30.2711 43.0528C30.7737 43.5981 30.7737 43.5981 30.4978 43.5981C30.35 43.5981 29.9854 43.5366 29.6898 43.4662C29.2463 43.3607 29.069 43.2551 28.6847 42.8769C27.0292 41.2235 25.9157 39.2182 25.5019 37.1338C25.2752 35.9992 25.2851 34.1171 25.5314 32.9913C26.0044 30.8805 27.0883 28.9456 28.6255 27.468C29.1971 26.9227 29.2956 26.8611 29.8376 26.7556C30.8328 26.5621 30.8328 26.5533 30.0839 27.4328ZM33.4835 26.7116C33.9762 26.7204 33.9565 26.8436 33.2864 27.6263C32.5769 28.4706 31.631 30.1329 31.2171 31.2411C31.0792 31.6281 30.8722 32.4196 30.754 33.0001C30.4781 34.4513 30.547 36.5973 30.9018 37.9781C31.3649 39.7459 32.2123 41.3642 33.4145 42.789C33.7101 43.1408 33.9368 43.4486 33.9171 43.4662C33.8875 43.4838 33.6412 43.5278 33.3653 43.5629L32.8529 43.6157L32.2912 43.1056C30.7934 41.7248 29.6208 39.8514 29.0887 38.0133C28.6847 36.6412 28.5861 34.7327 28.8423 33.3079C29.2463 31.0564 30.35 29.0247 32.1138 27.3449C32.7149 26.7644 32.912 26.6237 33.0795 26.6589C33.1977 26.6852 33.3751 26.7116 33.4835 26.7116ZM18.6534 28.6114C19.5403 28.7873 20.8311 28.9632 22.5654 29.1391L22.9793 29.183L22.6442 29.5964C22.1909 30.1593 21.4519 31.5489 21.2253 32.2525L21.0479 32.8242L20.5158 32.7978C19.3727 32.7362 16.1998 32.1997 16.0126 32.0326C15.8845 31.9183 16.6038 29.6668 17.0768 28.6817C17.2344 28.3651 17.3133 28.2859 17.4512 28.3387C17.5399 28.3739 18.0819 28.497 18.6534 28.6114ZM25.4526 29.2622C25.1865 29.7195 24.8909 30.2824 24.8121 30.5111C24.7234 30.7398 24.6051 30.9508 24.5559 30.986C24.4869 31.0212 23.9548 30.7925 23.6887 30.6078C23.6001 30.5551 24.8219 29.227 25.3442 28.8224C25.6398 28.585 25.9059 28.4003 25.9157 28.4179C25.9256 28.4267 25.7186 28.8049 25.4526 29.2622ZM3.39959 32.8242L4.27659 33.6157L4.36527 34.4777C4.53279 36.0344 4.86782 37.4768 5.39993 38.8928L5.62657 39.5084L5.13387 39.0247C3.98097 37.8901 2.80836 36.0168 2.19742 34.3633C1.89195 33.5366 1.50764 31.7864 1.50764 31.2587V30.9772L2.02005 31.5049C2.29595 31.7952 2.9266 32.3844 3.39959 32.8242ZM40.8838 32.4284C41.1597 33.1672 41.2681 33.0177 39.9378 33.8268C37.8685 35.0933 35.4641 35.8497 32.774 36.0784L32.0547 36.1399V35.0845V34.0291L32.774 33.9675C35.405 33.7565 37.9572 33.0529 39.79 32.0414C40.1743 31.8391 40.5192 31.6896 40.5586 31.7248C40.598 31.76 40.7458 32.0766 40.8838 32.4284ZM24.1322 32.5603C24.1026 32.6571 24.0336 33.0353 23.9646 33.3959C23.9055 33.7565 23.8365 34.0731 23.8168 34.0907C23.7577 34.1522 22.4964 33.2991 22.4964 33.1848C22.4964 33.0353 22.792 32.1558 22.9103 31.9623C22.9891 31.8216 23.0482 31.8303 23.5902 32.0942C24.0632 32.3317 24.1716 32.4196 24.1322 32.5603ZM18.2001 33.8444C18.8603 33.9412 19.5698 34.0467 19.7965 34.0819L20.2005 34.1434L19.4516 35.9816L18.7125 37.811L18.1213 37.7582C17.7863 37.7318 17.1162 37.6351 16.6136 37.5559C15.5494 37.3888 15.5987 37.4768 15.5987 35.8233V34.7591L16.1604 34.161C16.525 33.7829 16.7812 33.5894 16.8699 33.6157C16.9487 33.6421 17.5498 33.7477 18.2001 33.8444ZM41.3765 35.4803C41.3075 36.3334 41.3075 36.3422 40.9527 36.6061C39.8294 37.4416 37.7601 38.4442 36.2524 38.884C35.3853 39.139 33.7101 39.4645 33.2569 39.4645C32.9317 39.4645 32.8233 39.2798 32.4587 38.0836L32.2715 37.4504L32.8233 37.3976C34.8926 37.2041 36.5776 36.8259 38.1641 36.2191C39.0214 35.8849 40.4995 35.1461 41.0119 34.7855C41.4159 34.5128 41.4454 34.5744 41.3765 35.4803ZM22.8216 35.0933C23.0975 35.2604 23.4522 35.4539 23.6099 35.5419C23.8267 35.665 23.876 35.7441 23.876 36.0608C23.876 36.2631 23.9252 36.6852 23.9745 36.993C24.0336 37.3009 24.0533 37.5735 24.0238 37.5999C23.9646 37.6527 22.7034 36.9051 22.4669 36.6676C22.3092 36.5181 22.1023 34.8031 22.2402 34.8031C22.2698 34.8031 22.5358 34.935 22.8216 35.0933ZM20.9494 36.9755C20.9789 37.1601 21.038 37.4416 21.0676 37.5911L21.1464 37.8813H20.703H20.2596L20.5059 37.2657C20.634 36.9227 20.7818 36.65 20.8213 36.65C20.8607 36.65 20.9198 36.7996 20.9494 36.9755ZM40.3714 38.9543C39.4944 40.5111 38.0656 41.8127 36.3313 42.6483L35.5725 43.0177L35.1291 42.5779C34.5182 41.9886 33.6904 40.8717 33.7988 40.7925C33.8382 40.7485 34.2127 40.6694 34.6167 40.6078C36.282 40.3528 38.4991 39.6228 39.8393 38.8752C40.194 38.6729 40.5093 38.5058 40.5586 38.5058C40.598 38.497 40.5093 38.7081 40.3714 38.9543ZM24.7628 39.7283C24.8416 39.8866 25.1373 40.4231 25.423 40.9244C25.6989 41.4257 25.9059 41.8391 25.8763 41.8391C25.7679 41.8391 24.6052 40.7925 24.2208 40.344C23.8168 39.8778 23.1862 38.9455 23.1862 38.8136C23.1862 38.7784 23.5114 38.9104 23.9055 39.1039C24.4179 39.3501 24.6544 39.526 24.7628 39.7283ZM17.2049 38.9719C17.6779 39.0335 18.0917 39.1126 18.1213 39.1302C18.141 39.1566 18.0129 39.5612 17.8158 40.0361C17.6286 40.5023 17.4709 41.0036 17.4709 41.1443C17.4709 41.6632 18.1903 41.9447 18.6337 41.5929C18.7421 41.5137 19.0377 40.9508 19.2742 40.344L19.7176 39.2446L20.7129 39.2182L21.6983 39.1918L21.915 39.57C22.2402 40.1593 23.1369 41.329 23.472 41.6104C23.6395 41.76 23.7774 41.9007 23.7774 41.9447C23.7774 42.0678 22.4176 42.6307 21.3435 42.9473C20.299 43.2639 18.5943 43.5981 18.0523 43.5981C17.7764 43.5981 17.7271 43.5454 17.3625 42.8505C16.9191 41.9974 16.2786 40.3176 16.0618 39.4381C15.8845 38.7433 15.7958 38.7784 17.2049 38.9719Z" fill="#4169E1"/>
</g>
<defs>
<clipPath id="clip0_95_39">
<rect width="45" height="45" fill="white"/>
</clipPath>
</defs>
</svg>
