<svg width="45" height="38" viewBox="0 0 45 38" fill="none" xmlns="http://www.w3.org/2000/svg">
<path d="M10.4108 0.079403C5.07379 0.627766 0.721564 5.24601 0.0797208 11.0552C-0.0961268 12.5632 0.0269665 14.6967 0.369869 16.2304C0.914997 18.6809 2.15472 20.9343 4.08025 22.9307C5.51341 24.4216 6.66521 25.3384 11.0174 28.4229C14.1036 30.6249 15.8005 31.9102 17.3743 33.2639C18.4294 34.1722 20.9177 36.6055 21.5947 37.4024C22.2805 38.1992 22.7025 38.1992 23.3883 37.4024C24.0653 36.6055 26.5536 34.1722 27.6087 33.2639C29.1825 31.9102 30.8794 30.6249 33.9656 28.4229C38.3178 25.3384 39.4696 24.4216 40.9027 22.9307C42.8283 20.9343 44.068 18.6809 44.6131 16.2304C44.7978 15.3907 45 13.5486 45 12.6403C45.0088 6.73687 41.316 1.69022 35.9878 0.336448C33.9216 -0.194779 31.0816 -0.0319833 28.6198 0.764857C26.6415 1.40747 24.6896 2.55561 23.3092 3.90081L22.4915 4.68908L21.6826 3.90081C19.4405 1.72449 16.2313 0.345016 12.7759 0.0622667C11.6769 -0.0234151 11.3867 -0.0234151 10.4108 0.079403ZM13.8838 1.65595C15.8796 1.99011 17.981 2.85549 19.4845 3.96079C20.3989 4.63767 20.9265 5.15176 21.5947 6.02572C22.0607 6.63406 22.0958 6.66833 22.4915 6.66833C22.8872 6.66833 22.9223 6.63406 23.3883 6.02572C24.4346 4.65481 25.7447 3.61806 27.4504 2.81265C32.1104 0.61063 36.8319 1.13329 40.0235 4.21783C41.3336 5.47735 42.2392 6.90824 42.8371 8.63901C43.3118 10.0271 43.4525 10.9438 43.4525 12.6232C43.4525 16.5303 42.3623 19.2807 39.7333 22.0225C38.5112 23.2992 36.9638 24.4987 31.8993 28.0888C28.1626 30.7449 25.604 32.9041 23.1773 35.4574L22.4915 36.1686L21.8145 35.4574C19.379 32.9041 16.8204 30.7449 13.0836 28.0888C8.01924 24.4987 6.47178 23.2992 5.24964 22.0225C2.62072 19.2807 1.53046 16.5303 1.53046 12.6232C1.53046 10.9438 1.67114 10.0271 2.14593 8.63901C3.48237 4.74906 6.73555 1.99011 10.5339 1.52742C11.3603 1.43317 12.9166 1.48458 13.8838 1.65595Z" fill="#4169E1"/>
<path d="M9.87437 3.12108C9.21494 3.2753 8.95117 3.50664 8.95117 3.92648C8.95117 4.31205 9.24132 4.61194 9.61939 4.61194C9.99746 4.61194 11.3075 4.37203 11.501 4.26921C11.8966 4.06358 11.967 3.51521 11.6328 3.19819C11.457 3.01826 11.3427 2.98399 10.9119 2.99255C10.6305 2.99255 10.1645 3.05253 9.87437 3.12108Z" fill="#4169E1"/>
<path d="M33.3321 3.17256C33.2002 3.30965 33.1299 3.48958 33.1299 3.67808C33.1299 4.14933 33.3849 4.3207 34.3432 4.47492C35.4159 4.65485 35.5654 4.64629 35.8116 4.39781C36.26 3.9694 35.9962 3.36106 35.2752 3.15542C35.0818 3.10402 34.6158 3.03547 34.2289 3.00977C33.5695 2.96692 33.5167 2.97549 33.3321 3.17256Z" fill="#4169E1"/>
<path d="M14.5779 3.39523C14.5075 3.41236 14.3581 3.51518 14.2526 3.60943C13.9976 3.83221 13.98 4.3463 14.2174 4.5605C14.4284 4.74043 15.9319 5.29736 16.2221 5.29736C16.7848 5.29736 17.0837 4.45768 16.6529 4.06355C16.3451 3.79793 14.8592 3.30955 14.5779 3.39523Z" fill="#4169E1"/>
<path d="M29.3851 3.58373C28.5323 3.87505 28.2773 4.02927 28.1542 4.32059C28.0839 4.47482 28.0575 4.67189 28.0927 4.75757C28.1894 5.04032 28.4971 5.29736 28.7345 5.29736C29.1038 5.29736 30.6073 4.7233 30.7831 4.51766C30.9854 4.27775 30.9766 3.91789 30.748 3.63514C30.5281 3.36096 30.0709 3.34382 29.3851 3.58373Z" fill="#4169E1"/>
<path d="M5.9262 5.30597C5.40745 5.74295 4.81836 6.57406 4.81836 6.84824C4.81836 7.40518 5.60088 7.73933 6.03171 7.3709C6.3834 7.07102 7.18351 6.07711 7.23626 5.87147C7.29781 5.64013 7.16592 5.32311 6.93732 5.15175C6.68234 4.95468 6.25152 5.02322 5.9262 5.30597Z" fill="#4169E1"/>
<path d="M37.9222 5.25458C37.5617 5.59731 37.632 5.88006 38.2387 6.59122C38.9333 7.41376 39.074 7.52515 39.4169 7.52515C39.7598 7.52515 40.1642 7.13101 40.1642 6.79685C40.1642 6.57408 39.5224 5.70013 39.0564 5.30599C38.6695 4.96326 38.2299 4.94613 37.9222 5.25458Z" fill="#4169E1"/>
<path d="M18.6664 6.1114C18.2971 6.4627 18.3674 6.78829 18.9741 7.52515C19.2642 7.87645 19.5016 8.1849 19.5016 8.21917C19.5016 8.29629 19.9237 8.46765 20.1259 8.46765C20.3721 8.46765 20.8205 8.01354 20.8205 7.75649C20.8205 7.50802 20.2666 6.66833 19.8094 6.21422C19.4049 5.82009 19.0005 5.78581 18.6664 6.1114Z" fill="#4169E1"/>
<path d="M25.4458 6.00003C24.9974 6.24851 24.1621 7.42235 24.1621 7.79935C24.1621 8.37342 24.9886 8.69044 25.3755 8.2706C25.8327 7.79078 26.4569 6.95967 26.5009 6.77974C26.6504 6.20567 25.9645 5.70015 25.4458 6.00003Z" fill="#4169E1"/>
<path d="M40.5337 9.45302C40.4194 9.5387 40.2963 9.68436 40.2611 9.78718C40.1732 9.99282 40.4282 11.5779 40.5865 11.8692C40.7183 12.1092 41.158 12.2548 41.4393 12.152C41.8086 12.0149 41.9581 11.6979 41.8965 11.141C41.8086 10.3784 41.6591 9.77005 41.5009 9.58155C41.2986 9.34164 40.7887 9.27309 40.5337 9.45302Z" fill="#4169E1"/>
<path d="M3.51743 9.60712C3.22728 9.90701 2.95472 11.4321 3.11298 11.852C3.18332 12.0148 3.59656 12.2375 3.84275 12.2375C4.22962 12.2375 4.45822 11.8948 4.5989 11.1237C4.77474 10.1212 4.76595 9.82132 4.55493 9.59855C4.29995 9.33294 3.77241 9.34151 3.51743 9.60712Z" fill="#4169E1"/>
<path d="M21.5591 10.3099C21.269 10.5926 21.2954 10.9182 21.6559 11.4837C22.0251 12.0578 22.3505 12.2291 22.7549 12.0664C23.0714 11.9378 23.6341 11.1067 23.6341 10.7554C23.6341 10.6183 23.5462 10.4298 23.4231 10.3099C23.2385 10.1299 23.1418 10.1128 22.4911 10.1128C21.8405 10.1128 21.7438 10.1299 21.5591 10.3099Z" fill="#4169E1"/>
<path d="M40.8063 14.3968C40.4459 14.491 40.3755 14.6195 40.1117 15.6734C39.9183 16.4531 39.9095 16.5559 40.0326 16.7701C40.1821 17.0615 40.6129 17.2328 40.8943 17.13C41.2284 17.0015 41.3778 16.7616 41.5625 16.0333C41.7999 15.1165 41.7999 14.7995 41.5537 14.5767C41.2811 14.3454 41.1405 14.3111 40.8063 14.3968Z" fill="#4169E1"/>
<path d="M3.45614 14.5939C3.31546 14.7224 3.23633 14.9023 3.23633 15.0651C3.23633 15.5021 3.60561 16.7959 3.77266 16.9587C4.15074 17.3271 4.73982 17.2329 4.97722 16.753C5.07394 16.5474 5.06514 16.4017 4.86292 15.6477C4.72224 15.108 4.57277 14.6967 4.44968 14.5767C4.18591 14.3025 3.73749 14.3111 3.45614 14.5939Z" fill="#4169E1"/>
<path d="M38.6164 18.9808C38.2735 19.1693 37.3854 20.1546 37.2711 20.4716C37.1656 20.7801 37.3942 21.2428 37.7195 21.3542C38.08 21.4827 38.4053 21.2856 39.0472 20.5745C39.5396 20.0261 39.6363 19.8719 39.6363 19.6062C39.6363 19.3149 39.3901 18.9208 39.1967 18.9208C39.1615 18.9208 39.0736 18.9037 39.0032 18.878C38.9417 18.8523 38.7658 18.9037 38.6164 18.9808Z" fill="#4169E1"/>
<path d="M5.56601 19.135C5.14398 19.5377 5.29345 19.9318 6.19906 20.8657C6.64747 21.3284 6.76178 21.4055 7.02555 21.4055C7.52671 21.4055 7.90479 20.8914 7.72894 20.4459C7.68498 20.3345 7.36845 19.9489 7.01675 19.5805C6.46283 19.0064 6.34853 18.9207 6.08476 18.9207C5.87375 18.9207 5.70669 18.9893 5.56601 19.135Z" fill="#4169E1"/>
<path d="M35.0031 22.3395C34.7041 22.4166 33.5172 23.3077 33.3501 23.5733C33.183 23.8389 33.2358 24.096 33.5084 24.3787C33.8249 24.7214 34.203 24.6443 34.9855 24.0788C35.3636 23.8132 35.7416 23.4705 35.8208 23.3163C35.9702 23.0592 35.9702 23.0249 35.8383 22.7508C35.6801 22.4337 35.3284 22.2624 35.0031 22.3395Z" fill="#4169E1"/>
<path d="M9.32012 22.5452C9.1091 22.7679 9.06514 23.2478 9.24099 23.4705C9.30254 23.5391 9.65423 23.8304 10.0323 24.1046C10.595 24.5158 10.7884 24.6101 11.0434 24.6015C11.5973 24.5844 11.9227 24.0446 11.6501 23.5733C11.5446 23.3934 10.595 22.648 10.2082 22.4509C9.90042 22.2881 9.53114 22.331 9.32012 22.5452Z" fill="#4169E1"/>
<path d="M13.7258 25.347C13.4181 25.467 13.2334 25.8183 13.295 26.1524C13.339 26.3838 13.4796 26.538 13.9896 26.9064C14.3325 27.1635 14.7106 27.4205 14.8161 27.4719C15.4579 27.8061 16.1086 27.1892 15.8448 26.5123C15.7744 26.3238 14.4028 25.3727 14.1303 25.3128C14.016 25.2871 13.8313 25.3042 13.7258 25.347Z" fill="#4169E1"/>
<path d="M30.0883 25.7412C29.253 26.3153 29.0947 26.5038 29.0859 26.8636C29.0859 27.3434 29.6574 27.7033 30.1146 27.4977C30.3872 27.3777 31.3632 26.6666 31.5742 26.4438C31.8643 26.1182 31.7588 25.587 31.3632 25.3899C30.9763 25.1928 30.8268 25.2271 30.0883 25.7412Z" fill="#4169E1"/>
<path d="M17.6114 28.56C17.3476 28.8085 17.3213 29.2455 17.5499 29.5111C17.8224 29.8195 18.7632 30.565 19.0094 30.6592C19.3787 30.7963 19.8271 30.5735 19.9238 30.2137C20.0293 29.8024 19.9766 29.6739 19.4666 29.2283C18.4115 28.303 18.0159 28.1573 17.6114 28.56Z" fill="#4169E1"/>
<path d="M26.3071 28.5858C26.1225 28.7229 25.7532 29.0142 25.507 29.237C25.1289 29.5711 25.041 29.6997 25.041 29.931C25.041 30.3508 25.3312 30.6593 25.7444 30.6593C26.0258 30.6593 26.184 30.5736 26.7643 30.1024C27.1424 29.7939 27.4853 29.4855 27.5381 29.3998C27.6699 29.1599 27.6172 28.7657 27.4062 28.5515C27.1336 28.2688 26.7379 28.2859 26.3071 28.5858Z" fill="#4169E1"/>
<path d="M21.603 31.8159C21.3481 31.953 21.1898 32.2957 21.2425 32.6041C21.2601 32.6984 21.4799 32.9811 21.7437 33.221C22.3768 33.8123 22.6054 33.8123 23.2384 33.2296C23.4934 32.9897 23.722 32.6984 23.7396 32.587C23.8539 32.0386 23.2736 31.5588 22.7548 31.773C22.5438 31.8587 22.4295 31.8587 22.2625 31.7816C21.9811 31.6616 21.8844 31.6616 21.603 31.8159Z" fill="#4169E1"/>
</svg>
