<svg width="45" height="38" viewBox="0 0 45 38" fill="none" xmlns="http://www.w3.org/2000/svg">
<path d="M40.3745 9.47028C40.403 9.88588 40.403 10.3016 40.403 10.7172C40.403 23.3937 31.1232 38 14.1625 38C8.93719 38 4.08315 36.4265 0 33.6954C0.742415 33.7844 1.45618 33.8141 2.22716 33.8141C6.53865 33.8141 10.5076 32.3 13.6771 29.7172C9.62248 29.6281 6.22461 26.8672 5.05391 23.0672C5.62502 23.1562 6.19605 23.2156 6.79573 23.2156C7.62375 23.2156 8.45186 23.0968 9.22275 22.8891C4.99686 21.9984 1.82734 18.139 1.82734 13.4781V13.3594C3.05509 14.0719 4.48288 14.5172 5.9961 14.5765C3.51195 12.8546 1.88447 9.91558 1.88447 6.59056C1.88447 4.80934 2.34124 3.17653 3.14078 1.75152C7.68079 7.57026 14.5051 11.3702 22.1573 11.7859C22.0146 11.0734 21.9289 10.3313 21.9289 9.58908C21.9289 4.30464 26.0406 0 31.1516 0C33.8071 0 36.2055 1.15781 37.8902 3.02812C39.9746 2.61252 41.9733 1.81092 43.7437 0.712505C43.0583 2.93912 41.6021 4.80943 39.6891 5.99685C41.5451 5.78914 43.344 5.25465 45 4.51253C43.7439 6.41245 42.1733 8.10458 40.3745 9.47028Z" fill="#4169E1"/>
</svg>
