<svg width="32" height="38" viewBox="0 0 32 38" fill="none" xmlns="http://www.w3.org/2000/svg">
<path d="M16.5358 0C5.73896 0.00158336 0 6.67543 0 13.9525C0 17.3267 1.95456 21.5368 5.08416 22.8716C5.97692 23.2595 5.85876 22.7861 6.6268 19.9519C6.68752 19.7159 6.65634 19.5117 6.45941 19.2916C1.98574 14.2993 5.58634 4.03597 15.8974 4.03597C30.82 4.03597 28.0318 23.9578 18.4937 23.9578C16.0353 23.9578 14.2038 22.0957 14.7831 19.7919C15.4855 17.048 16.8608 14.0982 16.8608 12.1206C16.8608 7.13618 9.16396 7.87561 9.16396 14.4798C9.16396 16.5207 9.9123 17.8983 9.9123 17.8983C9.9123 17.8983 7.43587 27.5504 6.97636 29.3538C6.19847 32.4065 7.08139 37.3482 7.15852 37.7741C7.20611 38.0084 7.47854 38.0829 7.63116 37.8897C7.87569 37.5809 10.8691 33.4611 11.7077 30.4828C12.0129 29.3982 13.2651 24.9964 13.2651 24.9964C14.0906 26.4341 16.4702 27.6375 19.0057 27.6375C26.5482 27.6375 32 21.2407 32 13.3034C31.9737 5.69375 25.2239 0 16.5358 0Z" fill="#4169E1"/>
</svg>
